<?xml version="1.0" encoding="UTF-8"?>
<svg id="Layer_1" data-name="Layer 1"
	xmlns="http://www.w3.org/2000/svg"
	xmlns:xlink="http://www.w3.org/1999/xlink" viewBox="27 277 912 321" width="250">
	<defs>
		<style>
      .cls-1 {
        fill: url(#Adsız_degrade_11);
      }

      .cls-1, .cls-2, .cls-3, .cls-4, .cls-5, .cls-6, .cls-7, .cls-8, .cls-9, .cls-10, .cls-11, .cls-12, .cls-13, .cls-14, .cls-15, .cls-16, .cls-17, .cls-18, .cls-19, .cls-20, .cls-21, .cls-22, .cls-23, .cls-24, .cls-25, .cls-26, .cls-27, .cls-28, .cls-29, .cls-30, .cls-31, .cls-32, .cls-33, .cls-34, .cls-35, .cls-36, .cls-37, .cls-38, .cls-39, .cls-40, .cls-41 {
        stroke-width: 0px;
      }

      .cls-2 {
        fill: url(#linear-gradient);
      }

      .cls-3 {
        fill: url(#radial-gradient-8);
      }

      .cls-4 {
        fill: url(#Adsız_degrade_4);
      }

      .cls-5, .cls-18 {
        fill-rule: evenodd;
      }

      .cls-6 {
        fill: url(#Adsız_degrade_12-2);
      }

      .cls-8 {
        fill: url(#Adsız_degrade_8-2);
      }

      .cls-9 {
        fill: url(#Adsız_degrade_3-2);
      }

      .cls-10 {
        fill: url(#Adsız_degrade_3);
      }

      .cls-11 {
        fill: url(#Adsız_degrade_9);
      }

      .cls-12 {
        fill: url(#Adsız_degrade_9-2);
      }

      .cls-13, .cls-18 {
        fill: #fff;
      }

      .cls-14 {
        fill: url(#Adsız_degrade_4-2);
      }

      .cls-15 {
        fill: url(#Adsız_degrade_5);
      }

      .cls-16 {
        fill: url(#linear-gradient-2);
      }

      .cls-17 {
        fill: url(#Adsız_degrade_2-2);
      }

      .cls-19 {
        fill: url(#radial-gradient-2);
      }

      .cls-20 {
        fill: url(#radial-gradient-7);
      }

      .cls-21 {
        fill: url(#Adsız_degrade_6-2);
      }

      .cls-22 {
        fill: url(#radial-gradient-5);
      }

      .cls-23 {
        fill: url(#radial-gradient);
      }

      .cls-24 {
        fill: url(#Adsız_degrade_12);
      }

      .cls-25 {
        fill: url(#Adsız_degrade_8);
      }

      .cls-26 {
        fill: #a6a6a6;
      }

      .cls-27 {
        fill: url(#radial-gradient-10);
      }

      .cls-28 {
        fill: url(#Adsız_degrade_10);
      }

      .cls-29 {
        fill: url(#radial-gradient-6);
      }

      .cls-30 {
        fill: url(#Adsız_degrade_2);
      }

      .cls-31 {
        fill: url(#Adsız_degrade_7);
      }

      .cls-32 {
        fill: url(#radial-gradient-9);
      }

      .cls-33 {
        fill: url(#radial-gradient-3);
      }

      .cls-34 {
        fill: url(#Adsız_degrade_13-2);
      }

      .cls-35 {
        fill: url(#Adsız_degrade_10-2);
      }

      .cls-36 {
        fill: url(#Adsız_degrade_7-2);
      }

      .cls-37 {
        fill: url(#Adsız_degrade_11-2);
      }

      .cls-38 {
        fill: url(#Adsız_degrade_13);
      }

      .cls-39 {
        fill: url(#Adsız_degrade_5-2);
      }

      .cls-40 {
        fill: url(#Adsız_degrade_6);
      }

      .cls-41 {
        fill: url(#radial-gradient-4);
      }
		</style>
		<linearGradient id="linear-gradient" x1="3.58" y1="960.38" x2="1.52" y2="958.33" gradientTransform="translate(-75.12 76849.26) scale(77.42 -79.97)" gradientUnits="userSpaceOnUse">
			<stop offset=".05" stop-color="#fff44f"/>
			<stop offset=".37" stop-color="#ff980e"/>
			<stop offset=".53" stop-color="#ff3647"/>
			<stop offset=".7" stop-color="#e31587"/>
		</linearGradient>
		<radialGradient id="radial-gradient" cx="4.01" cy="960.42" fx="4.01" fy="960.42" r="3.38" gradientTransform="translate(-45.85 60521.11) scale(61.93 -62.95)" gradientUnits="userSpaceOnUse">
			<stop offset=".13" stop-color="#ffbd4f"/>
			<stop offset=".28" stop-color="#ff980e"/>
			<stop offset=".47" stop-color="#ff3750"/>
			<stop offset=".78" stop-color="#eb0878"/>
			<stop offset=".86" stop-color="#e50080"/>
		</radialGradient>
		<radialGradient id="radial-gradient-2" cx="2.8" cy="959.23" fx="2.8" fy="959.23" r="3.38" gradientTransform="translate(-54.37 60512.99) scale(63.48 -62.95)" gradientUnits="userSpaceOnUse">
			<stop offset=".3" stop-color="#960e18"/>
			<stop offset=".35" stop-color="#b11927" stop-opacity=".74"/>
			<stop offset=".43" stop-color="#db293d" stop-opacity=".34"/>
			<stop offset=".5" stop-color="#f5334b" stop-opacity=".09"/>
			<stop offset=".53" stop-color="#ff3750" stop-opacity="0"/>
		</radialGradient>
		<radialGradient id="radial-gradient-3" cx="6.71" cy="960.7" fx="6.71" fy="960.7" r="3.7" gradientTransform="translate(21.15 30325.36) scale(18.59 -31.55)" gradientUnits="userSpaceOnUse">
			<stop offset=".13" stop-color="#fff44f"/>
			<stop offset=".53" stop-color="#ff980e"/>
		</radialGradient>
		<radialGradient id="radial-gradient-4" cx="3.23" cy="956.64" fx="3.23" fy="956.64" r="2.64" gradientTransform="translate(-10.77 36289.62) scale(34.43 -37.74)" gradientUnits="userSpaceOnUse">
			<stop offset=".35" stop-color="#3a8ee6"/>
			<stop offset=".67" stop-color="#9059ff"/>
			<stop offset="1" stop-color="#c139e6"/>
		</radialGradient>
		<radialGradient id="radial-gradient-5" cx="4.18" cy="958.68" fx="4.18" fy="958.68" r="1.56" gradientTransform="translate(-7.33 36289.62) scale(30.99 -37.74)" gradientUnits="userSpaceOnUse">
			<stop offset=".21" stop-color="#9059ff" stop-opacity="0"/>
			<stop offset=".97" stop-color="#6e008b" stop-opacity=".6"/>
		</radialGradient>
		<radialGradient id="radial-gradient-6" cx="11.61" cy="958.91" fx="11.61" fy="958.91" r="7.66" gradientTransform="translate(9.19 9119.97) scale(9.44 -9.47)" gradientUnits="userSpaceOnUse">
			<stop offset=".1" stop-color="#ffe226"/>
			<stop offset=".79" stop-color="#ff7139"/>
		</radialGradient>
		<radialGradient id="radial-gradient-7" cx="3.51" cy="961.46" fx="3.51" fy="961.46" r="4.76" gradientTransform="translate(-70.11 58569.32) scale(72.58 -60.93)" gradientUnits="userSpaceOnUse">
			<stop offset=".11" stop-color="#fff44f"/>
			<stop offset=".46" stop-color="#ff980e"/>
			<stop offset=".72" stop-color="#ff3647"/>
			<stop offset=".9" stop-color="#e31587"/>
		</radialGradient>
		<radialGradient id="radial-gradient-8" cx="1.73" cy="965.31" fx="1.73" fy="965.31" r="9.21" gradientTransform="translate(-23672.79 2437.33) rotate(83.96) scale(24.63 -24.81) skewX(.09)" gradientUnits="userSpaceOnUse">
			<stop offset="0" stop-color="#fff44f"/>
			<stop offset=".3" stop-color="#ff980e"/>
			<stop offset=".57" stop-color="#ff3647"/>
			<stop offset=".74" stop-color="#e31587"/>
		</radialGradient>
		<radialGradient id="radial-gradient-9" cx="3.76" cy="959.95" fx="3.76" fy="959.95" r="6.3" gradientTransform="translate(1.31 29710.35) scale(31.47 -30.88)" gradientUnits="userSpaceOnUse">
			<stop offset=".14" stop-color="#fff44f"/>
			<stop offset=".48" stop-color="#ff980e"/>
			<stop offset=".66" stop-color="#ff3647"/>
			<stop offset=".9" stop-color="#e31587"/>
		</radialGradient>
		<radialGradient id="radial-gradient-10" cx="6.51" cy="959.41" fx="6.51" fy="959.41" r="8.27" gradientTransform="translate(-16.48 24818.93) scale(28.8 -25.79)" gradientUnits="userSpaceOnUse">
			<stop offset=".09" stop-color="#fff44f"/>
			<stop offset=".63" stop-color="#ff980e"/>
		</radialGradient>
		<linearGradient id="linear-gradient-2" x1="3.45" y1="960.36" x2="1.81" y2="958.52" gradientTransform="translate(-75.12 76849.26) scale(77.42 -79.97)" gradientUnits="userSpaceOnUse">
			<stop offset=".17" stop-color="#fff44f" stop-opacity=".8"/>
			<stop offset=".6" stop-color="#fff44f" stop-opacity="0"/>
		</linearGradient>
		<linearGradient id="Adsız_degrade_2" data-name="Adsız degrade 2" x1="280.27" y1="593.6" x2="103.65" y2="411.67" gradientTransform="translate(24.94 952.36) scale(1 -1)" gradientUnits="userSpaceOnUse">
			<stop offset="0" stop-color="#fff44f"/>
			<stop offset=".05" stop-color="#fff44f"/>
			<stop offset=".37" stop-color="#ff980e"/>
			<stop offset=".53" stop-color="#ff3647"/>
			<stop offset=".7" stop-color="#e31587"/>
			<stop offset="1" stop-color="#e31587"/>
		</linearGradient>
		<radialGradient id="Adsız_degrade_3" data-name="Adsız degrade 3" cx="57.45" cy="779.2" fx="57.45" fy="779.2" r="4.99" gradientTransform="translate(-3038.63 45711.44) scale(58.22 -58.22)" gradientUnits="userSpaceOnUse">
			<stop offset="0" stop-color="#ffbd4f"/>
			<stop offset=".13" stop-color="#ffbd4f"/>
			<stop offset=".28" stop-color="#ff980e"/>
			<stop offset=".47" stop-color="#ff3750"/>
			<stop offset=".78" stop-color="#eb0878"/>
			<stop offset=".86" stop-color="#e50080"/>
			<stop offset="1" stop-color="#e50080"/>
		</radialGradient>
		<radialGradient id="Adsız_degrade_4" data-name="Adsız degrade 4" cx="56.25" cy="777.86" fx="56.25" fy="777.86" r="4.99" gradientTransform="translate(-3056.13 45731.05) scale(58.22 -58.22)" gradientUnits="userSpaceOnUse">
			<stop offset="0" stop-color="#960e18"/>
			<stop offset=".3" stop-color="#960e18"/>
			<stop offset=".35" stop-color="#b11927" stop-opacity=".74"/>
			<stop offset=".43" stop-color="#db293d" stop-opacity=".34"/>
			<stop offset=".5" stop-color="#f5334b" stop-opacity=".09"/>
			<stop offset=".53" stop-color="#ff3750" stop-opacity="0"/>
			<stop offset="1" stop-color="#ff3750" stop-opacity="0"/>
		</radialGradient>
		<radialGradient id="Adsız_degrade_5" data-name="Adsız degrade 5" cx="52.35" cy="781.83" fx="52.35" fy="781.83" r="4.99" gradientTransform="translate(-1115.37 20602.52) scale(25.95 -25.95)" gradientUnits="userSpaceOnUse">
			<stop offset="0" stop-color="#fff44f"/>
			<stop offset=".13" stop-color="#fff44f"/>
			<stop offset=".53" stop-color="#ff980e"/>
			<stop offset="1" stop-color="#ff980e"/>
		</radialGradient>
		<radialGradient id="Adsız_degrade_6" data-name="Adsız degrade 6" cx="49.23" cy="775.43" fx="49.23" fy="775.43" r="4.99" gradientTransform="translate(-898.51 17698.9) scale(22.17 -22.17)" gradientUnits="userSpaceOnUse">
			<stop offset="0" stop-color="#3a8ee6"/>
			<stop offset=".35" stop-color="#3a8ee6"/>
			<stop offset=".67" stop-color="#9059ff"/>
			<stop offset="1" stop-color="#c139e6"/>
		</radialGradient>
		<radialGradient id="Adsız_degrade_7" data-name="Adsız degrade 7" cx="40.88" cy="778.85" fx="40.88" fy="778.85" r="4.99" gradientTransform="translate(-271.18 10609.87) scale(11.77 -13.08)" gradientUnits="userSpaceOnUse">
			<stop offset="0" stop-color="#9059ff" stop-opacity="0"/>
			<stop offset=".21" stop-color="#9059ff" stop-opacity="0"/>
			<stop offset=".97" stop-color="#6e008b" stop-opacity=".6"/>
			<stop offset="1" stop-color="#6e008b" stop-opacity=".6"/>
		</radialGradient>
		<radialGradient id="Adsız_degrade_8" data-name="Adsız degrade 8" cx="46.21" cy="782.75" fx="46.21" fy="782.75" r="4.99" gradientTransform="translate(-532.52 12972.71) scale(16.14 -16.14)" gradientUnits="userSpaceOnUse">
			<stop offset="0" stop-color="#ffe226"/>
			<stop offset=".1" stop-color="#ffe226"/>
			<stop offset=".79" stop-color="#ff7139"/>
			<stop offset="1" stop-color="#ff7139"/>
		</radialGradient>
		<radialGradient id="Adsız_degrade_9" data-name="Adsız degrade 9" cx="57.86" cy="779.55" fx="57.86" fy="779.55" r="4.99" gradientTransform="translate(-4156.14 60138.95) scale(76.78 -76.78)" gradientUnits="userSpaceOnUse">
			<stop offset="0" stop-color="#fff44f"/>
			<stop offset=".11" stop-color="#fff44f"/>
			<stop offset=".46" stop-color="#ff980e"/>
			<stop offset=".72" stop-color="#ff3647"/>
			<stop offset=".9" stop-color="#e31587"/>
			<stop offset="1" stop-color="#e31587"/>
		</radialGradient>
		<radialGradient id="Adsız_degrade_10" data-name="Adsız degrade 10" cx="58.23" cy="779.06" fx="58.23" fy="779.06" r="4.99" gradientTransform="translate(-5998.96 83952.16) scale(107.38 -107.38)" gradientUnits="userSpaceOnUse">
			<stop offset="0" stop-color="#fff44f"/>
			<stop offset=".3" stop-color="#ff980e"/>
			<stop offset=".57" stop-color="#ff3647"/>
			<stop offset=".74" stop-color="#e31587"/>
			<stop offset="1" stop-color="#e31587"/>
		</radialGradient>
		<radialGradient id="Adsız_degrade_11" data-name="Adsız degrade 11" cx="54.97" cy="779.22" fx="54.97" fy="779.22" r="4.99" gradientTransform="translate(-2208.91 34717.86) scale(44.08 -44.08)" gradientUnits="userSpaceOnUse">
			<stop offset="0" stop-color="#fff44f"/>
			<stop offset=".14" stop-color="#fff44f"/>
			<stop offset=".48" stop-color="#ff980e"/>
			<stop offset=".66" stop-color="#ff3647"/>
			<stop offset=".9" stop-color="#e31587"/>
			<stop offset="1" stop-color="#e31587"/>
		</radialGradient>
		<radialGradient id="Adsız_degrade_12" data-name="Adsız degrade 12" cx="56.67" cy="778.82" fx="56.67" fy="778.82" r="4.99" gradientTransform="translate(-2731.65 41647) scale(52.98 -52.98)" gradientUnits="userSpaceOnUse">
			<stop offset="0" stop-color="#fff44f"/>
			<stop offset=".09" stop-color="#fff44f"/>
			<stop offset=".63" stop-color="#ff980e"/>
			<stop offset="1" stop-color="#ff980e"/>
		</radialGradient>
		<linearGradient id="Adsız_degrade_13" data-name="Adsız degrade 13" x1="269.23" y1="592.47" x2="128.57" y2="428.37" gradientTransform="translate(24.94 952.36) scale(1 -1)" gradientUnits="userSpaceOnUse">
			<stop offset="0" stop-color="#fff44f" stop-opacity=".8"/>
			<stop offset=".17" stop-color="#fff44f" stop-opacity=".8"/>
			<stop offset=".6" stop-color="#fff44f" stop-opacity="0"/>
			<stop offset="1" stop-color="#fff44f" stop-opacity="0"/>
		</linearGradient>
		<linearGradient id="Adsız_degrade_2-2" data-name="Adsız degrade 2" x1="281.65" y1="237.74" x2="99.96" y2="50.59" xlink:href="#Adsız_degrade_2"/>
		<radialGradient id="Adsız_degrade_3-2" data-name="Adsız degrade 3" cx="57.48" cy="773.09" fx="57.48" fy="773.09" r="5.13" xlink:href="#Adsız_degrade_3"/>
		<radialGradient id="Adsız_degrade_4-2" data-name="Adsız degrade 4" cx="56.23" cy="771.7" fx="56.23" fy="771.7" r="5.13" xlink:href="#Adsız_degrade_4"/>
		<radialGradient id="Adsız_degrade_5-2" data-name="Adsız degrade 5" cx="52.33" cy="768.17" fx="52.33" fy="768.17" r="5.13" xlink:href="#Adsız_degrade_5"/>
		<radialGradient id="Adsız_degrade_6-2" data-name="Adsız degrade 6" cx="49.14" cy="759.19" fx="49.14" fy="759.19" r="5.13" xlink:href="#Adsız_degrade_6"/>
		<radialGradient id="Adsız_degrade_7-2" data-name="Adsız degrade 7" cx="40.77" cy="751.51" fx="40.77" fy="751.51" r="5.13" xlink:href="#Adsız_degrade_7"/>
		<radialGradient id="Adsız_degrade_8-2" data-name="Adsız degrade 8" cx="46.13" cy="760.74" fx="46.13" fy="760.74" r="5.13" xlink:href="#Adsız_degrade_8"/>
		<radialGradient id="Adsız_degrade_9-2" data-name="Adsız degrade 9" cx="57.88" cy="774.94" fx="57.88" fy="774.94" r="5.13" xlink:href="#Adsız_degrade_9"/>
		<radialGradient id="Adsız_degrade_10-2" data-name="Adsız degrade 10" cx="58.23" cy="775.76" fx="58.23" fy="775.76" r="5.13" xlink:href="#Adsız_degrade_10"/>
		<radialGradient id="Adsız_degrade_11-2" data-name="Adsız degrade 11" cx="54.94" cy="771.14" fx="54.94" fy="771.14" r="5.13" xlink:href="#Adsız_degrade_11"/>
		<radialGradient id="Adsız_degrade_12-2" data-name="Adsız degrade 12" cx="56.68" cy="772.09" fx="56.68" fy="772.09" r="5.13" xlink:href="#Adsız_degrade_12"/>
		<linearGradient id="Adsız_degrade_13-2" data-name="Adsız degrade 13" x1="270.3" y1="236.58" x2="125.6" y2="67.76" xlink:href="#Adsız_degrade_13"/>
	</defs>
	<path class="cls-26" d="M857.1,289.87H95.24c-5.2,0-9.65.74-14.85,1.49-4.46.74-9.65,2.23-14.11,4.46-4.46,2.23-8.17,5.2-11.88,8.91-3.71,3.71-6.68,7.43-8.91,11.88-2.23,4.46-3.71,9.65-4.46,14.11-.74,5.2-1.49,9.65-1.49,14.85v184.9c0,5.2.74,9.65,1.49,14.85.74,5.2,2.23,9.65,4.46,14.11,2.23,5.2,5.2,8.91,8.91,12.62,3.71,3.71,7.43,6.68,11.88,8.91,4.46,2.23,8.91,3.71,14.11,4.46,5.2.74,9.65,1.49,14.85,1.49h776.71c5.2,0,9.65-.74,14.85-1.49,5.2-.74,9.65-2.23,14.11-4.46,4.46-2.23,8.17-5.2,11.88-8.91,3.71-3.71,6.68-7.43,8.91-11.88,2.23-4.46,3.71-8.91,4.46-14.11.74-5.2,1.49-9.65,1.49-14.85v-185.64c0-5.2-.74-9.65-1.49-14.85-.74-5.2-2.23-9.65-4.46-14.11-4.46-8.91-11.88-16.34-20.79-20.79-4.46-2.23-8.91-3.71-14.11-4.46-5.2-.74-9.65-1.49-14.85-1.49h-14.85Z"/>
	<path class="cls-7" d="M101.92,580.21h-6.68c-4.46,0-9.65,0-14.11-.74-4.46-.74-8.17-2.23-12.62-4.46-3.71-2.23-7.43-4.46-10.4-7.43-2.97-2.97-5.2-6.68-7.43-10.4-2.23-3.71-3.71-8.17-3.71-12.62-.74-4.46-1.49-8.91-1.49-14.11v-184.9c0-4.46.74-9.65,1.49-14.11,1.49-3.71,2.23-8.17,4.46-11.88,2.23-3.71,4.46-7.43,7.43-10.4,2.97-2.97,6.68-5.2,10.4-7.43,3.71-2.23,8.17-3.71,12.62-4.46,4.46-.74,9.65-1.49,14.11-1.49h776.71c4.46,0,8.91.74,14.11,1.49,4.46.74,8.17,2.23,12.62,3.71,7.43,3.71,14.11,10.4,17.82,17.82,2.23,3.71,2.97,8.17,3.71,12.62.74,4.46,1.49,9.65,1.49,14.11v184.9c0,4.46-.74,8.91-1.49,13.37-.74,4.46-2.23,8.17-3.71,12.62-2.23,3.71-4.46,7.43-7.43,10.4-2.97,2.97-6.68,5.2-10.4,7.43-3.71,2.23-8.17,3.71-12.62,4.46-4.46.74-8.91,1.49-14.11,1.49H101.92Z"/>
	<path class="cls-26" d="M857.1,650.36H95.24c-5.2,0-9.65.74-14.85,1.49-4.46.74-9.65,2.23-14.11,4.46-4.46,2.23-8.17,5.2-11.88,8.91-3.71,3.71-6.68,7.43-8.91,11.88-2.23,4.46-3.71,9.65-4.46,14.11-.74,5.2-1.49,9.65-1.49,14.85v184.9c0,5.2.74,9.65,1.49,14.85.74,5.2,2.23,9.65,4.46,14.11,2.23,5.2,5.2,8.91,8.91,12.62,3.71,3.71,7.43,6.68,11.88,8.91,4.46,2.23,8.91,3.71,14.11,4.46,5.2.74,9.65,1.49,14.85,1.49h776.71c5.2,0,9.65-.74,14.85-1.49,5.2-.74,9.65-2.23,14.11-4.46,4.46-2.23,8.17-5.2,11.88-8.91,3.71-3.71,6.68-7.43,8.91-11.88,2.23-4.46,3.71-8.91,4.46-14.11.74-5.2,1.49-9.65,1.49-14.85v-185.64c0-5.2-.74-9.65-1.49-14.85-.74-5.2-2.23-9.65-4.46-14.11-4.46-8.91-11.88-16.34-20.79-20.79-4.46-2.23-8.91-3.71-14.11-4.46-5.2-.74-9.65-1.49-14.85-1.49h-14.85Z"/>
	<path class="cls-13" d="M101.92,940.7h-6.68c-4.46,0-9.65,0-14.11-.74-4.46-.74-8.17-2.23-12.62-4.46-3.71-2.23-7.43-4.46-10.4-7.43-2.97-2.97-5.2-6.68-7.43-10.4-2.23-3.71-3.71-8.17-3.71-12.62-.74-4.46-1.49-8.91-1.49-14.11v-184.9c0-4.46.74-9.65,1.49-14.11,1.49-3.71,2.23-8.17,4.46-11.88,2.23-3.71,4.46-7.43,7.43-10.4s6.68-5.2,10.4-7.43c3.71-2.23,8.17-3.71,12.62-4.46,4.46-.74,9.65-1.49,14.11-1.49h776.71c4.46,0,8.91.74,14.11,1.49,4.46.74,8.17,2.23,12.62,3.71,7.43,3.71,14.11,10.4,17.82,17.82,2.23,3.71,2.97,8.17,3.71,12.62.74,4.46,1.49,9.65,1.49,14.11v184.9c0,4.46-.74,8.91-1.49,13.37-.74,4.46-2.23,8.17-3.71,12.62-2.23,3.71-4.46,7.43-7.43,10.4-2.97,2.97-6.68,5.2-10.4,7.43-3.71,2.23-8.17,3.71-12.62,4.46-4.46.74-8.91,1.49-14.11,1.49H101.92Z"/>
	<path class="cls-2" d="M220.43,88.85c-4.45-10.7-13.47-22.26-20.54-25.92,5.04,9.76,8.54,20.24,10.37,31.08l.02.17c-11.58-28.86-31.21-40.5-47.24-65.84-.83-1.29-1.63-2.6-2.41-3.92-.4-.69-.78-1.4-1.13-2.11-.66-1.29-1.18-2.65-1.53-4.06,0-.13-.1-.25-.23-.26-.06-.02-.13-.02-.19,0-.01,0-.03.02-.05.03s-.05.03-.07.04l.04-.07c-25.72,15.06-34.44,42.93-35.25,56.88-10.27.71-20.09,4.49-28.18,10.86-.84-.71-1.73-1.38-2.64-2-2.33-8.17-2.43-16.81-.29-25.02-9.44,4.58-17.84,11.06-24.64,19.05h-.05c-4.06-5.14-3.77-22.1-3.54-25.65-1.2.48-2.35,1.09-3.42,1.81-3.58,2.56-6.93,5.43-10.01,8.57-3.51,3.55-6.71,7.4-9.57,11.48v.02-.02c-6.58,9.33-11.25,19.88-13.74,31.02l-.14.68c-.38,2.12-.71,4.26-1.01,6.39,0,.08-.02.15-.02.22-.9,4.66-1.45,9.38-1.66,14.11v.53c.05,56.55,45.93,102.35,102.48,102.3,49.8-.04,92.35-35.91,100.81-84.99.17-1.32.31-2.63.46-3.96,2.11-17.43-.17-35.11-6.64-51.43ZM102.42,168.99c.48.23.93.48,1.42.7l.07.04c-.5-.24-.99-.49-1.49-.74ZM210.28,94.2v-.1l.02.11h-.02Z"/>
	<path class="cls-23" d="M220.43,88.85c-4.45-10.7-13.47-22.26-20.54-25.92,5.04,9.76,8.54,20.24,10.37,31.08v.1l.02.11c7.89,22.58,6.75,47.34-3.19,69.1-11.73,25.18-40.14,50.98-84.6,49.73-48.04-1.36-90.35-37.01-98.26-83.7-1.44-7.36,0-11.1.72-17.08-.99,4.65-1.54,9.38-1.65,14.13v.53c.05,56.55,45.93,102.35,102.48,102.3,49.8-.04,92.35-35.91,100.81-84.99.17-1.32.31-2.63.46-3.96,2.11-17.43-.17-35.11-6.64-51.43Z"/>
	<path class="cls-19" d="M220.43,88.85c-4.45-10.7-13.47-22.26-20.54-25.92,5.04,9.76,8.54,20.24,10.37,31.08v.1l.02.11c7.89,22.58,6.75,47.34-3.19,69.1-11.73,25.18-40.14,50.98-84.6,49.73-48.04-1.36-90.35-37.01-98.26-83.7-1.44-7.36,0-11.1.72-17.08-.99,4.65-1.54,9.38-1.65,14.13v.53c.05,56.55,45.93,102.35,102.48,102.3,49.8-.04,92.35-35.91,100.81-84.99.17-1.32.31-2.63.46-3.96,2.11-17.43-.17-35.11-6.64-51.43Z"/>
	<path class="cls-33" d="M170.67,103.46c.22.16.43.31.64.47-2.57-4.56-5.77-8.74-9.51-12.4-31.82-31.83-8.34-69.01-4.38-70.9l.04-.06c-25.72,15.06-34.44,42.93-35.25,56.88,1.19-.08,2.38-.18,3.6-.18,18.58.03,35.7,10.04,44.86,26.2Z"/>
	<path class="cls-41" d="M125.88,109.81c-.17,2.55-9.17,11.33-12.31,11.33-29.11,0-33.84,17.61-33.84,17.61,1.29,14.83,11.62,27.05,24.12,33.51.57.29,1.14.57,1.73.82,1,.44,2,.85,3.01,1.23,4.29,1.52,8.78,2.38,13.32,2.57,51.03,2.39,60.91-61.02,24.09-79.43,8.69-1.13,17.48,1.01,24.69,5.99-9.16-16.16-26.29-26.16-44.86-26.2-1.22,0-2.4.1-3.6.18-10.27.71-20.09,4.49-28.18,10.86,1.56,1.32,3.32,3.09,7.03,6.74,6.95,6.84,24.77,13.93,24.81,14.77Z"/>
	<path class="cls-22" d="M125.88,109.81c-.17,2.55-9.17,11.33-12.31,11.33-29.11,0-33.84,17.61-33.84,17.61,1.29,14.83,11.62,27.05,24.12,33.51.57.29,1.14.57,1.73.82,1,.44,2,.85,3.01,1.23,4.29,1.52,8.78,2.38,13.32,2.57,51.03,2.39,60.91-61.02,24.09-79.43,8.69-1.13,17.48,1.01,24.69,5.99-9.16-16.16-26.29-26.16-44.86-26.2-1.22,0-2.4.1-3.6.18-10.27.71-20.09,4.49-28.18,10.86,1.56,1.32,3.32,3.09,7.03,6.74,6.95,6.84,24.77,13.93,24.81,14.77Z"/>
	<path class="cls-29" d="M89.26,84.9c.71.45,1.42.92,2.11,1.4-2.33-8.17-2.43-16.81-.29-25.02-9.44,4.58-17.84,11.06-24.64,19.05.5-.01,15.35-.28,22.82,4.58Z"/>
	<path class="cls-20" d="M24.25,129.35c7.9,46.69,50.22,82.34,98.26,83.7,44.46,1.26,72.86-24.55,84.6-49.73,9.94-21.76,11.08-46.52,3.19-69.1v-.1c0-.08-.02-.12,0-.1l.02.17c3.63,23.71-8.43,46.69-27.29,62.23l-.06.13c-36.74,29.92-71.9,18.05-79.02,13.21-.5-.24-.99-.49-1.49-.74-21.42-10.24-30.27-29.76-28.37-46.49-10.39.15-19.89-5.83-24.25-15.26,11.43-7,25.68-7.58,37.64-1.51,12.12,5.5,25.92,6.05,38.44,1.51-.04-.83-17.86-7.93-24.81-14.77-3.71-3.66-5.47-5.42-7.03-6.74-.84-.71-1.73-1.38-2.64-2-.7-.47-1.4-.94-2.11-1.4-7.47-4.86-22.32-4.59-22.81-4.58h-.05c-4.06-5.14-3.77-22.1-3.54-25.65-1.2.48-2.35,1.09-3.42,1.81-3.58,2.56-6.93,5.43-10.01,8.57-3.52,3.54-6.73,7.38-9.61,11.46v.02-.02c-6.58,9.33-11.25,19.88-13.74,31.02-.05.21-3.69,16.11-1.89,24.36Z"/>
	<path class="cls-3" d="M161.81,91.52c3.74,3.67,6.94,7.85,9.51,12.42.53.4,1.04.81,1.53,1.26,23.21,21.4,11.05,51.65,10.14,53.8,18.86-15.54,30.91-38.51,27.29-62.23-11.58-28.87-31.21-40.51-47.24-65.85-.83-1.29-1.63-2.6-2.41-3.92-.4-.69-.78-1.4-1.13-2.11-.66-1.29-1.18-2.65-1.53-4.06,0-.13-.1-.25-.23-.26-.06-.02-.13-.02-.19,0-.01,0-.03.02-.05.03s-.05.03-.07.04c-3.96,1.88-27.44,39.06,4.39,70.89Z"/>
	<path class="cls-32" d="M172.83,105.18c-.49-.44-1-.86-1.53-1.26-.21-.16-.41-.31-.64-.47-7.2-4.99-16-7.12-24.69-5.99,36.83,18.41,26.95,81.82-24.09,79.43-4.54-.19-9.03-1.05-13.32-2.57-1-.38-2-.79-3.01-1.23-.58-.26-1.16-.54-1.73-.82l.07.04c7.12,4.86,42.27,16.73,79.02-13.21l.06-.13c.92-2.14,13.08-32.4-10.14-53.78Z"/>
	<path class="cls-27" d="M79.73,138.76s4.73-17.61,33.84-17.61c3.15,0,12.15-8.78,12.31-11.33-12.52,4.54-26.32,3.99-38.44-1.51-11.96-6.07-26.21-5.49-37.64,1.51,4.36,9.43,13.86,15.41,24.25,15.26-1.9,16.74,6.95,36.26,28.37,46.49.48.23.93.48,1.42.7-12.5-6.46-22.83-18.67-24.12-33.5Z"/>
	<path class="cls-16" d="M220.43,88.85c-4.45-10.7-13.47-22.26-20.54-25.92,5.04,9.76,8.54,20.24,10.37,31.08l.02.17c-11.58-28.86-31.21-40.5-47.24-65.84-.83-1.29-1.63-2.6-2.41-3.92-.4-.69-.78-1.4-1.13-2.11-.66-1.29-1.18-2.65-1.53-4.06,0-.13-.1-.25-.23-.26-.06-.02-.13-.02-.19,0-.01,0-.03.02-.05.03s-.05.03-.07.04l.04-.07c-25.72,15.06-34.44,42.93-35.25,56.88,1.19-.08,2.38-.18,3.6-.18,18.58.03,35.7,10.04,44.86,26.2-7.2-4.99-16-7.12-24.69-5.99,36.83,18.41,26.95,81.82-24.09,79.43-4.54-.19-9.03-1.05-13.32-2.57-1-.38-2-.79-3.01-1.23-.58-.26-1.16-.54-1.73-.82l.07.04c-.5-.24-.99-.49-1.49-.74.48.23.93.48,1.42.7-12.5-6.46-22.83-18.68-24.12-33.51,0,0,4.73-17.61,33.84-17.61,3.15,0,12.15-8.78,12.31-11.33-.04-.83-17.86-7.93-24.81-14.77-3.71-3.66-5.47-5.42-7.03-6.74-.84-.71-1.73-1.38-2.64-2-2.33-8.17-2.43-16.81-.29-25.02-9.44,4.58-17.84,11.06-24.64,19.05h-.05c-4.06-5.14-3.77-22.1-3.54-25.65-1.2.48-2.35,1.09-3.42,1.81-3.58,2.56-6.93,5.43-10.01,8.57-3.51,3.55-6.71,7.4-9.57,11.48v.02-.02c-6.58,9.33-11.25,19.88-13.74,31.02l-.14.68c-.19.9-1.06,5.48-1.18,6.46,0,.07,0-.08,0,0-.79,4.72-1.29,9.49-1.51,14.27v.53c.05,56.55,45.93,102.35,102.48,102.3,49.8-.04,92.35-35.91,100.81-84.99.17-1.32.31-2.63.46-3.96,2.11-17.43-.17-35.11-6.64-51.43ZM210.27,94.11l.02.11-.02-.11Z"/>
	<path class="cls-7" d="M276.31,38.76h28.42v7.71h-20.29v10.41h20.29v7.63h-20.29v16.85h-8.14v-42.61ZM314.4,35.8c2.52-.08,4.63,1.91,4.71,4.43,0,.12,0,.23,0,.35-.2,2.62-2.48,4.58-5.1,4.39-2.35-.18-4.21-2.04-4.39-4.39-.03-2.61,2.06-4.75,4.68-4.78.04,0,.07,0,.11,0ZM310.47,49.83h7.93v31.54h-7.93v-31.54ZM341.8,58.57c-1.11-.88-2.49-1.38-3.91-1.4-3.25,0-5.12,2.11-5.12,6.71v17.49h-7.93v-31.54h7.63v4.54c1.2-2.98,4.16-4.87,7.37-4.7,1.88,0,3.72.58,5.28,1.64l-3.33,7.26ZM345.13,65.73c-.25-8.88,6.75-16.28,15.63-16.53.19,0,.37,0,.56,0,8.56-.36,15.78,6.29,16.14,14.85.02.39.02.79,0,1.19v3.3h-24.49c.82,4.08,4.54,6.91,8.69,6.6,3.33.15,6.44-1.69,7.93-4.68l6.71,4.02c-3.22,4.95-8.84,7.81-14.74,7.48-8.44.67-15.82-5.62-16.49-14.06-.06-.72-.06-1.44-.02-2.16h.08ZM353.05,62.19h16.54c-.83-3.88-4.41-6.55-8.37-6.23-3.87-.15-7.31,2.46-8.19,6.23h.03ZM379.47,49.83h5.63v-1.56c0-8.56,3.62-12.13,11.54-12.13h2.8v6.95h-2.27c-3.72,0-4.54,1.27-4.54,5.28v1.56h6.82v7.13h-6.63v24.3h-7.71v-24.3h-5.63v-7.24ZM400.95,65.68c-.15-8.9,6.95-16.23,15.84-16.38.2,0,.39,0,.59,0,9.05,0,16.38,7.33,16.38,16.38s-7.33,16.38-16.38,16.38c-8.75.39-16.15-6.39-16.54-15.13-.02-.47-.02-.94,0-1.4l.11.16ZM426.02,65.68c.26-4.76-3.38-8.84-8.15-9.1-4.76-.26-8.84,3.38-9.1,8.15-.02.32-.02.64,0,.96-.26,4.76,3.38,8.84,8.15,9.1,4.76.26,8.84-3.38,9.1-8.15.02-.32.02-.64,0-.96ZM444.64,65.33l-11.36-15.4h9.27l6.71,9.7,6.87-9.7h9.27l-11.54,15.32,12.18,16.11h-9.38l-7.53-10.25-7.26,10.25h-9.38l12.15-16.04ZM512.53,59.34c3.55-1.67,5.77-5.29,5.65-9.22,0-6.89-5.28-11.33-13.21-11.33h-18.23v42.58h18.81c7.93,0,13.47-4.57,13.47-12.02.2-4.38-2.41-8.41-6.5-10.01ZM491.63,43.22h13.21c5.28,0,8.4,2.8,8.4,6.89s-2.8,7.11-7.93,7.11h-13.71l.03-14ZM505.5,76.9h-13.87v-15.19h13.66c5.81,0,8.85,3.09,8.85,7.61s-3.38,7.58-8.64,7.58ZM529.44,55.77v-5.89h-4.6v31.49h4.73v-17.25c0-6.95,3.01-9.99,8.27-9.99,1.36-.05,2.7.3,3.86,1l1.98-4.54c-1.62-.87-3.45-1.28-5.28-1.19-4.13-.26-7.87,2.43-8.96,6.42v-.05ZM560.24,49.19c-8.93-.09-16.24,7.08-16.33,16.01,0,.12,0,.25,0,.37-.19,8.87,6.84,16.21,15.71,16.4.2,0,.41,0,.61,0,9.05.36,16.69-6.68,17.05-15.73.36-9.05-6.68-16.69-15.73-17.05-.44-.02-.88-.02-1.32,0ZM560.24,77.43c-6.3.05-11.45-5.02-11.5-11.32,0-.2,0-.4.01-.59-.3-6.37,4.61-11.78,10.98-12.08,6.37-.3,11.78,4.61,12.08,10.98.02.37.02.74,0,1.1.26,6.34-4.66,11.69-11.01,11.96-.19,0-.38.01-.56,0v-.05ZM615.03,74.63l-9.38-24.81h-4.44l-9.64,24.96-7.93-24.96h-5.02l10.33,31.54h4.68l9.67-24.99,9.7,24.99h4.31l10.94-31.52h-4.97l-8.24,24.78ZM645.09,63.14c-4.91-1-8.69-1.64-8.69-4.91s1.98-5.02,6.82-5.02c3.44-.09,6.68,1.56,8.64,4.39l3.96-2.64c-3-3.81-7.65-5.95-12.5-5.76-7.45,0-11.73,4.25-11.73,9.14,0,6.31,5.79,7.77,11.2,8.82,4.62.92,8.93,1.64,8.93,5.12s-2.64,5.49-7.45,5.49c-4.06.17-7.91-1.78-10.17-5.15l-4.15,2.8c3.26,4.51,8.63,7.01,14.19,6.6,8.24,0,12.44-4.83,12.44-9.8-.05-6.47-6.08-8-11.49-9.03v-.05ZM676.79,49.19c-8.93-.15-16.28,6.97-16.43,15.9,0,.2,0,.41,0,.61-.24,8.75,6.65,16.04,15.4,16.29.4.01.81,0,1.21-.01,5.97.27,11.6-2.78,14.63-7.93l-4.07-2.38c-2.03,3.92-6.16,6.29-10.57,6.08-6.1.33-11.37-4.2-11.97-10.28h27.84v-2.17c.28-8.59-6.45-15.78-15.04-16.06-.33-.01-.66-.01-.99,0l-.03-.05ZM665.14,63.19c.96-5.67,5.9-9.8,11.65-9.75,5.75-.33,10.71,4,11.15,9.75h-22.8ZM712.16,49.35c-4.14-.27-7.9,2.41-8.98,6.42v-5.89h-4.62v31.49h4.73v-17.25c0-6.95,3.04-9.99,8.29-9.99,1.36-.05,2.7.3,3.86,1l1.98-4.54c-1.61-.85-3.41-1.26-5.23-1.19l-.03-.05ZM310.47,103.66l-39.04,103.48h20.55l6.82-18.86h43.22l6.82,18.86h20.55l-39.12-103.48h-19.79ZM305.45,170.16l15.03-41.1,14.87,41.1h-29.9ZM410.48,103.66h-33.44v103.48h33.81c30.88,0,53.57-22.24,53.57-51.72s-21.08-51.75-53.94-51.75ZM409.64,188.44h-12.5v-66.2h11.91c22.67,0,35.16,14.19,35.16,33.18s-13.6,33.02-34.58,33.02ZM510.02,103.66h-33.5v103.48h33.87c30.91,0,53.68-22.24,53.68-51.8s-21.13-51.67-54.1-51.67h.05ZM509.18,188.44h-12.47v-66.2h11.89c22.69,0,35.16,14.19,35.16,33.18-.05,18.57-13.66,33.02-34.63,33.02h.05ZM575.8,163.84h52.44v-16.88h-52.49l.05,16.88ZM691.4,102.26c-29.35-.01-53.16,23.77-53.18,53.12-.01,29.35,23.77,53.16,53.12,53.18,29.35.01,53.16-23.77,53.18-53.12,0-.04,0-.07,0-.11.13-29.18-23.42-52.94-52.59-53.07-.18,0-.35,0-.53,0h0ZM691.4,188.86c-18.51.28-33.74-14.51-34.02-33.02-.28-18.51,14.51-33.74,33.02-34.02,18.51-.28,33.74,14.51,34.02,33.02,0,.17,0,.33,0,.5.34,18.18-14.13,33.18-32.3,33.52-.24,0-.48,0-.72,0h0ZM823.19,174.12l-45.33-70.45h-21.42v103.48h19.42v-72.7l46.78,72.7h19.84v-103.48h-19.28v70.45ZM898.61,145.06c-12.92-2.96-23.25-4.52-23.25-12.89,0-6.79,4.81-12.34,16.01-12.34,9.84-.49,19.15,4.47,24.22,12.92l16.3-12.76c-10.57-11.62-21.95-17.99-40.23-17.99-21.56,0-36.72,13.6-36.72,30.59,0,20.98,17.3,25.94,32.73,29.19,14.32,3.28,24.25,5.28,24.25,14.9,0,7.5-5.81,12.89-17.01,12.89-12.34,0-21.53-5.52-28.35-16.3l-17.44,13.9c9.77,12.47,23.38,21.13,45.65,21.13s37.99-14.71,37.99-32.44c0-22.16-18.31-27.26-34.16-30.67v-.13Z"/>
	<g>
		<path class="cls-18" d="M715.54,511.81c-7.05,0-13.57-1.78-19.64-5.44-6.08-3.55-10.96-8.33-14.55-14.43-3.58-6.1-5.43-12.65-5.43-19.64s1.85-13.54,5.43-19.64c3.58-6,8.46-10.77,14.55-14.43,6.08-3.55,12.59-5.33,19.64-5.33s13.57,1.78,19.65,5.33c6.08,3.66,10.96,8.44,14.55,14.43,3.58,6.1,5.43,12.65,5.43,19.64s-1.85,13.54-5.43,19.64c-3.58,6.11-8.47,10.88-14.55,14.43-6.08,3.66-12.59,5.44-19.65,5.44ZM715.54,496.94c4.13,0,7.93-1.11,11.51-3.44,3.58-2.22,6.4-5.22,8.46-8.99,2.07-3.78,3.15-7.88,3.15-12.21s-1.08-8.43-3.15-12.21c-2.06-3.66-4.88-6.66-8.46-8.99-3.58-2.22-7.38-3.33-11.51-3.33s-7.81,1.11-11.39,3.33c-3.58,2.33-6.51,5.33-8.57,9.1-2.07,3.78-3.15,7.77-3.15,12.1s1.08,8.44,3.15,12.21c2.06,3.77,4.99,6.77,8.57,8.99,3.58,2.33,7.38,3.44,11.39,3.44Z"/>
		<path class="cls-18" d="M453.17,497.39l5.21,13.1h17.91l-30.28-76.25h-18.02l-30.28,76.25h17.91l5.21-13.1h32.34ZM437,456.88l11.07,27.74h-22.14l11.07-27.74Z"/>
		<path class="cls-18" d="M533.37,439.12c-6.51-3.22-13.89-4.88-22.14-4.88h-26.7v76.25h26.7c8.25,0,15.63-1.67,22.14-4.88,6.51-3.22,11.61-7.77,15.3-13.65,3.58-5.77,5.43-12.32,5.43-19.64s-1.85-13.87-5.43-19.64c-3.69-5.77-8.79-10.32-15.3-13.54ZM525.88,492.62c-3.69,2-7.93,2.99-12.59,2.99h-12.81v-46.5h12.81c4.66,0,8.9,1,12.59,2.89,3.69,2,6.62,4.77,8.68,8.32,2.07,3.55,3.04,7.55,3.04,11.99s-.98,8.54-3.04,11.99c-2.06,3.55-4.99,6.32-8.68,8.33Z"/>
		<path class="cls-18" d="M590.25,434.24c8.25,0,15.63,1.67,22.14,4.88,6.51,3.22,11.62,7.77,15.31,13.54,3.58,5.77,5.43,12.32,5.43,19.64s-1.85,13.87-5.43,19.64c-3.69,5.88-8.79,10.43-15.31,13.65-6.51,3.22-13.89,4.88-22.14,4.88h-26.7v-76.25h26.7ZM592.31,495.61c4.67,0,8.9-1,12.59-2.99,3.69-2,6.62-4.77,8.68-8.33,2.06-3.44,3.04-7.44,3.04-11.99s-.98-8.44-3.04-11.99c-2.07-3.55-4.99-6.33-8.68-8.32-3.69-1.89-7.92-2.89-12.59-2.89h-12.81v46.5h12.81Z"/>
		<path class="cls-13" d="M639.63,473.08h29.74v13.76h-29.74v-13.76Z"/>
		<path class="cls-13" d="M780.54,434.24h-15.96v76.25h15.96v-49.28l36.03,49.28h15.96v-76.25h-15.96v49.27l-36.03-49.27Z"/>
		<path class="cls-13" d="M445.76,388.55h-21.52v7.64h12.6v9.28c-1.54,1.2-3.37,2.1-5.27,2.77-1.98.67-3.96.97-5.86.97-3.07,0-5.93-.82-8.56-2.47-2.71-1.65-4.83-3.9-6.37-6.66-1.54-2.77-2.34-5.77-2.34-8.98s.81-6.22,2.34-8.98c1.54-2.77,3.66-4.94,6.37-6.59,2.63-1.65,5.49-2.47,8.56-2.47,2.49,0,4.98.52,7.47,1.57,2.49,1.12,4.54,2.54,6.08,4.42l6.51-6.22c-2.41-2.54-5.49-4.56-9.08-6.07-3.59-1.5-7.25-2.24-10.98-2.24-4.76,0-9.15,1.2-13.18,3.59-4.1,2.4-7.32,5.62-9.74,9.74-2.49,4.12-3.66,8.53-3.66,13.25s1.17,9.13,3.66,13.25c2.41,4.12,5.64,7.34,9.74,9.74,4.03,2.47,8.42,3.67,13.18,3.67,3.66,0,7.32-.75,10.98-2.24,3.59-1.5,6.66-3.52,9.08-6.14v-20.81Z"/>
		<path class="cls-13" d="M462.52,373.95h28.7v-8.53h-37.86v51.43h37.86v-8.53h-28.7v-13.4h25.99v-8.53h-25.99v-12.43Z"/>
		<path class="cls-13" d="M512.52,373.95h-16.11v-8.53h41.3v8.53h-16.04v42.9h-9.15v-42.9Z"/>
		<path class="cls-13" d="M560.3,373.95h16.11v42.9h9.15v-42.9h16.03v-8.53h-41.29v8.53Z"/>
		<path class="cls-13" d="M642.48,365.42h9.08v51.43h-9.08v-21.94h-25.12v21.94h-9.15v-51.43h9.15v20.96h25.12v-20.96Z"/>
		<path class="cls-13" d="M670.05,373.95h28.7v-8.53h-37.86v51.43h37.86v-8.53h-28.7v-13.4h25.99v-8.53h-25.99v-12.43Z"/>
		<path class="cls-30" d="M326.04,401.12c-4.94-11.88-14.93-24.7-22.79-28.75,6.39,12.53,10.09,25.1,11.5,34.47,0,.02,0,.06.02.19-12.84-32.01-34.62-44.92-52.41-73.03-.9-1.42-1.8-2.85-2.68-4.35-.44-.76-.86-1.55-1.25-2.35-.74-1.43-1.31-2.93-1.7-4.49,0-.15-.1-.29-.26-.31-.07-.01-.14-.01-.21,0-.02,0-.04.02-.06.03-.02,0-.05.03-.08.04,0-.01.03-.05.04-.06-28.53,16.71-38.21,47.63-39.1,63.09-11.39.78-22.29,4.98-31.26,12.05-.94-.8-1.93-1.54-2.94-2.22-2.59-9.06-2.7-18.65-.32-27.76-11.67,5.31-20.75,13.71-27.35,21.13h-.05c-4.5-5.71-4.19-24.52-3.93-28.45-.05-.24-3.36,1.72-3.79,2.01-3.98,2.84-7.69,6.02-11.1,9.51-3.89,3.94-7.43,8.19-10.61,12.72,0,0,0,0,0,.01,0,0,0,0,0-.01-7.3,10.35-12.49,22.04-15.24,34.41-.05.25-.1.5-.15.75-.21,1-.98,6-1.12,7.09-.01.08-.01.16-.02.25-1,5.17-1.61,10.41-1.85,15.67,0,.19-.01.39-.01.58,0,62.73,50.86,113.58,113.59,113.58,56.18,0,102.83-40.79,111.97-94.36.19-1.46.34-2.92.51-4.38,2.26-19.48-.25-39.95-7.37-57.07ZM195.12,490.02c.53.25,1.03.53,1.58.77.02.01.05.03.07.05-.55-.27-1.11-.54-1.65-.82ZM314.79,407.06v-.11s0,.08,0,.12h0Z"/>
		<path class="cls-10" d="M326.04,401.12c-4.94-11.88-14.93-24.7-22.79-28.75,6.39,12.53,10.09,25.1,11.5,34.47,0-.03,0,.02.02.1,0,.04,0,.08.02.12,10.71,29.05,4.88,58.6-3.54,76.65-13.01,27.93-44.53,56.56-93.86,55.16-53.29-1.51-100.24-41.05-109.01-92.85-1.6-8.17,0-12.32.8-18.95-.98,5.11-1.35,6.59-1.85,15.67,0,.19-.01.38-.01.58,0,62.72,50.86,113.57,113.59,113.57,56.18,0,102.83-40.78,111.96-94.35.19-1.46.35-2.92.52-4.38,2.26-19.48-.25-39.95-7.37-57.07Z"/>
		<path class="cls-4" d="M326.04,401.12c-4.94-11.88-14.93-24.7-22.79-28.75,6.39,12.53,10.09,25.1,11.5,34.47,0-.03,0,.02.02.1,0,.04,0,.08.02.12,10.71,29.05,4.88,58.6-3.54,76.65-13.01,27.93-44.53,56.56-93.86,55.16-53.29-1.51-100.24-41.05-109.01-92.85-1.6-8.17,0-12.32.8-18.95-.98,5.11-1.35,6.59-1.85,15.67,0,.19-.01.38-.01.58,0,62.72,50.86,113.57,113.59,113.57,56.18,0,102.83-40.78,111.96-94.35.19-1.46.35-2.92.52-4.38,2.26-19.48-.25-39.95-7.37-57.07Z"/>
		<path class="cls-15" d="M270.85,414.47c.25.17.47.35.71.52-2.85-5.06-6.4-9.69-10.55-13.76-35.31-35.31-9.26-76.55-4.87-78.64.01-.02.04-.05.05-.06-28.54,16.71-38.21,47.62-39.11,63.09,1.33-.09,2.64-.2,3.99-.2,21.29,0,39.84,11.71,49.77,29.06Z"/>
		<path class="cls-40" d="M221.12,421.52c-.18,2.83-10.17,12.57-13.66,12.57-32.3,0-37.54,19.54-37.54,19.54,1.43,16.45,12.88,30,26.76,37.17.63.33,1.27.62,1.92.92,1.1.48,2.21.94,3.34,1.36,4.75,1.69,9.74,2.64,14.78,2.85,56.61,2.65,67.58-67.69,26.73-88.11,10.46-1.82,21.32,2.39,27.39,6.65-9.93-17.35-28.48-29.06-49.77-29.06-1.35,0-2.67.11-3.99.2-11.39.78-22.29,4.98-31.26,12.05,1.73,1.47,3.69,3.43,7.8,7.48,7.71,7.6,27.48,15.46,27.52,16.38Z"/>
		<path class="cls-31" d="M221.12,421.52c-.18,2.83-10.17,12.57-13.66,12.57-32.3,0-37.54,19.54-37.54,19.54,1.43,16.45,12.88,30,26.76,37.17.63.33,1.27.62,1.92.92,1.1.48,2.21.94,3.34,1.36,4.75,1.69,9.74,2.64,14.78,2.85,56.61,2.65,67.58-67.69,26.73-88.11,10.46-1.82,21.32,2.39,27.39,6.65-9.93-17.35-28.48-29.06-49.77-29.06-1.35,0-2.67.11-3.99.2-11.39.78-22.29,4.98-31.26,12.05,1.73,1.47,3.69,3.43,7.8,7.48,7.71,7.6,27.48,15.46,27.52,16.38Z"/>
		<path class="cls-25" d="M180.5,393.89c.79.51,1.58,1.03,2.35,1.56-2.59-9.05-2.7-18.65-.32-27.76-11.67,5.31-20.74,13.71-27.34,21.13.54-.01,17.02-.31,25.31,5.07Z"/>
		<path class="cls-11" d="M108.41,446.05c8.76,51.79,55.72,91.33,109.01,92.85,49.32,1.4,80.84-27.24,93.86-55.17,8.41-18.05,14.25-47.59,3.53-76.65h0s-.02-.12-.02-.12c-.01-.08-.02-.13-.02-.1,0,.01.01.06.02.19,4.03,26.31-9.36,51.79-30.28,69.03l-.06.15c-40.76,33.19-79.77,20.02-87.67,14.64-.55-.27-1.1-.54-1.65-.82-23.77-11.36-33.59-33.01-31.48-51.58-20.07,0-26.91-16.93-26.91-16.93,0,0,18.02-12.85,41.77-1.68,21.99,10.35,42.64,1.68,42.65,1.68-.04-.92-19.81-8.79-27.52-16.38-4.12-4.06-6.08-6.02-7.81-7.48-.94-.79-1.92-1.54-2.94-2.22-.78-.53-1.56-1.05-2.35-1.56-8.29-5.39-24.76-5.09-25.31-5.07h-.05c-4.5-5.71-4.19-24.52-3.93-28.45-.05-.24-3.36,1.72-3.8,2.01-3.97,2.84-7.69,6.02-11.1,9.51-3.89,3.94-7.43,8.2-10.61,12.72,0,0,0,.01-.01.02,0,0,0,0,.01-.02-7.31,10.35-12.49,22.05-15.24,34.41-.05.24-4.09,17.89-2.1,27.04Z"/>
		<path class="cls-28" d="M260.99,401.23c4.15,4.07,7.69,8.7,10.55,13.76.62.47,1.21.94,1.71,1.39,25.75,23.73,12.26,57.29,11.25,59.68,20.92-17.23,34.3-42.72,30.27-69.03-12.84-32.01-34.62-44.92-52.41-73.03-.9-1.42-1.8-2.85-2.67-4.35-.45-.76-.87-1.55-1.25-2.35-.74-1.43-1.31-2.93-1.7-4.49,0-.15-.1-.29-.25-.31-.07-.01-.14-.01-.21,0-.02,0-.04.02-.05.03-.02,0-.06.03-.08.04-4.39,2.1-30.44,43.34,4.87,78.64Z"/>
		<path class="cls-1" d="M273.23,416.39c-.49-.45-1.08-.92-1.71-1.39-.23-.17-.46-.35-.7-.52-6.07-4.26-16.93-8.47-27.39-6.65,40.86,20.43,29.89,90.77-26.73,88.11-5.04-.2-10.03-1.16-14.78-2.85-1.13-.42-2.24-.88-3.34-1.36-.64-.29-1.28-.59-1.92-.92.02.01.05.03.08.05,7.9,5.39,46.9,18.55,87.67-14.64l.06-.15c1-2.39,14.5-35.95-11.25-59.68Z"/>
		<path class="cls-24" d="M169.92,453.63s5.24-19.54,37.54-19.54c3.49,0,13.47-9.74,13.66-12.57.18-2.83-20.65,8.67-42.65-1.68-23.74-11.17-41.76,1.68-41.76,1.68,0,0,6.84,16.93,26.91,16.93-2.11,18.57,7.71,40.22,31.48,51.58.53.25,1.03.53,1.57.77-13.87-7.17-25.33-20.72-26.75-37.17Z"/>
		<path class="cls-38" d="M326.04,401.12c-4.94-11.88-14.94-24.7-22.79-28.75,6.39,12.53,10.09,25.1,11.5,34.47,0,.02,0,.06.02.19-12.84-32.01-34.62-44.92-52.41-73.03-.9-1.42-1.8-2.85-2.67-4.35-.45-.76-.86-1.55-1.25-2.35-.74-1.43-1.31-2.93-1.7-4.49,0-.15-.11-.29-.26-.31-.07-.01-.14-.01-.21,0-.01,0-.04.02-.05.03-.02,0-.06.03-.08.04.01-.01.04-.05.05-.06-28.54,16.71-38.21,47.63-39.11,63.09,1.33-.09,2.64-.2,3.99-.2,21.29,0,39.84,11.71,49.77,29.06-6.07-4.26-16.93-8.47-27.39-6.65,40.86,20.42,29.89,90.76-26.73,88.11-5.04-.2-10.02-1.17-14.78-2.85-1.12-.42-2.23-.88-3.34-1.36-.64-.29-1.28-.59-1.91-.92.02.02.05.03.07.05-.55-.27-1.11-.54-1.66-.82.53.25,1.03.53,1.58.77-13.87-7.17-25.33-20.72-26.76-37.17,0,0,5.24-19.53,37.55-19.53,3.49,0,13.47-9.75,13.66-12.57-.04-.92-19.81-8.79-27.52-16.38-4.12-4.06-6.07-6.02-7.8-7.48-.94-.79-1.93-1.54-2.94-2.22-2.59-9.06-2.7-18.65-.32-27.76-11.67,5.31-20.75,13.71-27.35,21.13h-.05c-4.5-5.7-4.19-24.52-3.93-28.44-.05-.24-3.36,1.72-3.79,2.01-3.98,2.83-7.69,6.02-11.1,9.51-3.89,3.94-7.43,8.2-10.61,12.72,0,0,0,0,0,.01,0,0,0,0,0-.01-7.31,10.35-12.49,22.04-15.24,34.41-.05.25-.1.5-.15.75-.21,1-1.17,6.07-1.31,7.16-.01.08,0-.08,0,0-.88,5.24-1.44,10.54-1.68,15.85,0,.19-.01.38-.01.58,0,62.73,50.86,113.58,113.59,113.58,56.18,0,102.83-40.79,111.96-94.36.19-1.46.35-2.92.52-4.38,2.25-19.48-.25-39.95-7.37-57.07ZM314.77,406.95s0,.08.01.12h0s-.01-.12-.01-.12Z"/>
	</g>
	<g>
		<path class="cls-5" d="M728.69,872.07c-7.26,0-13.96-1.83-20.21-5.59-6.26-3.65-11.28-8.56-14.96-14.84-3.68-6.28-5.58-13.01-5.58-20.21s1.9-13.93,5.58-20.2c3.68-6.17,8.71-11.08,14.96-14.84,6.25-3.65,12.95-5.48,20.21-5.48s13.96,1.83,20.21,5.48c6.25,3.77,11.28,8.68,14.96,14.84,3.68,6.28,5.58,13.01,5.58,20.2s-1.9,13.93-5.58,20.21c-3.68,6.28-8.71,11.19-14.96,14.84-6.26,3.77-12.95,5.59-20.21,5.59ZM728.69,856.77c4.24,0,8.15-1.14,11.84-3.54,3.68-2.28,6.59-5.37,8.71-9.25,2.12-3.88,3.24-8.11,3.24-12.56s-1.11-8.67-3.24-12.56c-2.12-3.77-5.02-6.85-8.71-9.25-3.68-2.28-7.59-3.42-11.84-3.42s-8.04,1.14-11.72,3.42c-3.68,2.4-6.7,5.48-8.82,9.36-2.12,3.88-3.24,7.99-3.24,12.44s1.11,8.68,3.24,12.56c2.12,3.88,5.14,6.96,8.82,9.25,3.68,2.4,7.59,3.54,11.72,3.54Z"/>
		<path class="cls-5" d="M458.8,857.23l5.36,13.47h18.43l-31.15-78.43h-18.53l-31.15,78.43h18.42l5.36-13.47h33.27ZM442.16,815.56l11.39,28.54h-22.78l11.39-28.54Z"/>
		<path class="cls-5" d="M541.3,797.29c-6.7-3.31-14.29-5.02-22.78-5.02h-27.47v78.43h27.47c8.49,0,16.08-1.71,22.78-5.02,6.7-3.31,11.95-7.99,15.74-14.04,3.68-5.94,5.58-12.67,5.58-20.21s-1.9-14.27-5.58-20.21c-3.8-5.94-9.04-10.62-15.74-13.93ZM533.6,852.32c-3.8,2.05-8.15,3.08-12.95,3.08h-13.18v-47.83h13.18c4.8,0,9.15,1.03,12.95,2.97,3.8,2.05,6.81,4.91,8.93,8.56,2.12,3.65,3.13,7.76,3.13,12.33s-1.01,8.79-3.13,12.33c-2.12,3.65-5.13,6.51-8.93,8.56Z"/>
		<path class="cls-5" d="M599.8,792.27c8.49,0,16.08,1.71,22.78,5.02,6.7,3.31,11.95,7.99,15.75,13.93,3.68,5.94,5.58,12.67,5.58,20.21s-1.9,14.27-5.58,20.21c-3.8,6.05-9.05,10.73-15.75,14.04-6.7,3.31-14.29,5.02-22.78,5.02h-27.46v-78.43h27.46ZM601.93,855.4c4.8,0,9.15-1.03,12.95-3.08,3.8-2.06,6.81-4.91,8.93-8.56,2.12-3.54,3.13-7.65,3.13-12.33s-1.01-8.68-3.13-12.33c-2.12-3.65-5.14-6.51-8.93-8.56-3.8-1.94-8.15-2.97-12.95-2.97h-13.18v47.83h13.18Z"/>
		<path class="cls-7" d="M650.61,832.23h30.59v14.16h-30.59v-14.16Z"/>
		<path class="cls-7" d="M795.55,792.27h-16.42v78.43h16.42v-50.69l37.07,50.69h16.42v-78.43h-16.42v50.69l-37.07-50.69Z"/>
		<path class="cls-7" d="M451.17,745.27h-22.14v7.86h12.96v9.55c-1.59,1.23-3.47,2.16-5.42,2.85-2.04.69-4.07,1-6.03,1-3.16,0-6.1-.85-8.81-2.54-2.79-1.69-4.97-4.01-6.55-6.86-1.58-2.85-2.41-5.93-2.41-9.24s.83-6.39,2.41-9.24c1.58-2.85,3.77-5.09,6.55-6.78,2.71-1.69,5.65-2.54,8.81-2.54,2.57,0,5.13.54,7.69,1.62,2.56,1.15,4.67,2.62,6.25,4.55l6.7-6.39c-2.48-2.62-5.64-4.7-9.34-6.24-3.69-1.54-7.46-2.31-11.3-2.31-4.9,0-9.41,1.23-13.56,3.69-4.22,2.47-7.53,5.78-10.02,10.02-2.56,4.23-3.77,8.78-3.77,13.63s1.21,9.4,3.77,13.63c2.48,4.24,5.8,7.55,10.02,10.02,4.15,2.54,8.66,3.77,13.56,3.77,3.77,0,7.53-.77,11.3-2.31,3.69-1.54,6.86-3.62,9.34-6.32v-21.41Z"/>
		<path class="cls-7" d="M468.42,730.25h29.53v-8.78h-38.94v52.91h38.94v-8.78h-29.53v-13.79h26.74v-8.78h-26.74v-12.78Z"/>
		<path class="cls-7" d="M519.85,730.25h-16.57v-8.78h42.48v8.78h-16.5v44.13h-9.41v-44.13Z"/>
		<path class="cls-7" d="M569,730.25h16.57v44.13h9.42v-44.13h16.49v-8.78h-42.48v8.78Z"/>
		<path class="cls-7" d="M653.54,721.47h9.34v52.91h-9.34v-22.57h-25.84v22.57h-9.42v-52.91h9.42v21.56h25.84v-21.56Z"/>
		<path class="cls-7" d="M681.9,730.25h29.53v-8.78h-38.94v52.91h38.94v-8.78h-29.53v-13.79h26.74v-8.78h-26.74v-12.78Z"/>
		<path class="cls-17" d="M328.02,758.2c-5.08-12.22-15.36-25.41-23.44-29.57,6.57,12.88,10.38,25.82,11.83,35.46,0,.02,0,.07.02.2-13.21-32.93-35.62-46.21-53.91-75.13-.92-1.46-1.85-2.93-2.76-4.47-.46-.79-.89-1.6-1.28-2.42-.76-1.47-1.35-3.02-1.75-4.62,0-.16-.11-.3-.27-.32-.07-.02-.14-.02-.22,0-.02.01-.04.03-.06.04-.03.01-.06.03-.08.05.01-.02.04-.06.05-.07-29.35,17.19-39.31,48.99-40.22,64.9-11.72.81-22.93,5.13-32.16,12.4-.97-.82-1.98-1.58-3.03-2.29-2.66-9.32-2.78-19.18-.33-28.56-12,5.46-21.34,14.11-28.13,21.74h-.05c-4.63-5.87-4.31-25.23-4.04-29.26-.06-.25-3.45,1.77-3.9,2.07-4.09,2.92-7.91,6.19-11.42,9.79-4,4.05-7.65,8.43-10.91,13.08,0,0,0,.01,0,.02,0,0,0-.01,0-.02-7.51,10.65-12.84,22.68-15.68,35.4-.06.26-.11.52-.16.77-.22,1.03-1.01,6.17-1.15,7.29-.01.09-.02.17-.03.26-1.03,5.32-1.66,10.7-1.9,16.12,0,.2-.01.4-.01.6,0,64.53,52.32,116.84,116.85,116.84,57.79,0,105.78-41.96,115.18-97.06.19-1.5.35-3,.53-4.51,2.32-20.04-.26-41.1-7.58-58.71ZM193.34,849.65c.54.26,1.06.54,1.62.8.02.02.05.04.08.05-.57-.28-1.14-.56-1.7-.85ZM316.44,764.31l-.02-.11s.01.09.02.13v-.02Z"/>
		<path class="cls-9" d="M328.02,758.2c-5.08-12.22-15.36-25.41-23.44-29.57,6.57,12.88,10.38,25.82,11.83,35.46,0-.03.01.02.02.11,0,.04.01.09.02.13,11.02,29.88,5.02,60.28-3.64,78.85-13.39,28.74-45.81,58.18-96.55,56.75-54.82-1.55-103.12-42.23-112.13-95.51-1.65-8.4,0-12.67.83-19.49-1.01,5.26-1.39,6.78-1.9,16.12,0,.19-.01.4-.01.6,0,64.52,52.32,116.83,116.85,116.83,57.79,0,105.78-41.95,115.17-97.06.2-1.5.36-3,.53-4.51,2.32-20.04-.26-41.1-7.58-58.71Z"/>
		<path class="cls-14" d="M328.02,758.2c-5.08-12.22-15.36-25.41-23.44-29.57,6.57,12.88,10.38,25.82,11.83,35.46,0-.03.01.02.02.11,0,.04.01.09.02.13,11.02,29.88,5.02,60.28-3.64,78.85-13.39,28.74-45.81,58.18-96.55,56.75-54.82-1.55-103.12-42.23-112.13-95.51-1.65-8.4,0-12.67.83-19.49-1.01,5.26-1.39,6.78-1.9,16.12,0,.19-.01.4-.01.6,0,64.52,52.32,116.83,116.85,116.83,57.79,0,105.78-41.95,115.17-97.06.2-1.5.36-3,.53-4.51,2.32-20.04-.26-41.1-7.58-58.71Z"/>
		<path class="cls-39" d="M271.25,771.93c.26.18.49.36.73.54-2.94-5.21-6.59-9.97-10.85-14.16-36.32-36.32-9.53-78.75-5.01-80.9.02-.02.04-.06.05-.07-29.36,17.19-39.31,48.99-40.23,64.9,1.36-.09,2.72-.21,4.11-.21,21.91,0,40.98,12.04,51.2,29.9Z"/>
		<path class="cls-21" d="M220.09,779.18c-.19,2.91-10.46,12.93-14.05,12.93-33.23,0-38.62,20.1-38.62,20.1,1.47,16.92,13.25,30.86,27.52,38.23.65.34,1.31.64,1.97.94,1.13.5,2.27.97,3.43,1.4,4.89,1.73,10.02,2.72,15.2,2.94,58.24,2.73,69.52-69.63,27.49-90.63,10.76-1.87,21.93,2.46,28.17,6.84-10.22-17.85-29.29-29.9-51.2-29.9-1.39,0-2.75.11-4.11.21-11.72.81-22.93,5.13-32.16,12.39,1.78,1.51,3.79,3.53,8.03,7.7,7.93,7.82,28.26,15.9,28.31,16.85Z"/>
		<path class="cls-36" d="M220.09,779.18c-.19,2.91-10.46,12.93-14.05,12.93-33.23,0-38.62,20.1-38.62,20.1,1.47,16.92,13.25,30.86,27.52,38.23.65.34,1.31.64,1.97.94,1.13.5,2.27.97,3.43,1.4,4.89,1.73,10.02,2.72,15.2,2.94,58.24,2.73,69.52-69.63,27.49-90.63,10.76-1.87,21.93,2.46,28.17,6.84-10.22-17.85-29.29-29.9-51.2-29.9-1.39,0-2.75.11-4.11.21-11.72.81-22.93,5.13-32.16,12.39,1.78,1.51,3.79,3.53,8.03,7.7,7.93,7.82,28.26,15.9,28.31,16.85Z"/>
		<path class="cls-8" d="M178.31,750.76c.82.52,1.62,1.06,2.42,1.6-2.66-9.31-2.78-19.18-.33-28.56-12,5.46-21.34,14.11-28.12,21.74.56-.02,17.51-.32,26.03,5.22Z"/>
		<path class="cls-12" d="M104.14,804.42c9.02,53.28,57.32,93.95,112.14,95.51,50.74,1.44,83.16-28.02,96.55-56.75,8.65-18.57,14.66-48.96,3.63-78.85v-.02l-.02-.11c-.01-.09-.02-.14-.02-.11,0,.02.01.07.03.19,4.14,27.06-9.63,53.28-31.15,71.01l-.06.15c-41.93,34.14-82.06,20.6-90.19,15.06-.57-.28-1.13-.56-1.7-.85-24.45-11.68-34.55-33.96-32.38-53.06-20.64,0-27.68-17.41-27.68-17.41,0,0,18.53-13.22,42.96-1.72,22.62,10.64,43.87,1.72,43.87,1.72-.05-.95-20.38-9.04-28.31-16.85-4.24-4.18-6.25-6.19-8.03-7.7-.96-.82-1.98-1.58-3.03-2.28-.8-.54-1.61-1.08-2.42-1.61-8.52-5.54-25.47-5.23-26.03-5.22h-.06c-4.63-5.87-4.31-25.22-4.04-29.26-.06-.25-3.46,1.77-3.91,2.07-4.08,2.92-7.91,6.19-11.42,9.79-4,4.05-7.65,8.43-10.91,13.08,0,.01,0,.02-.01.02,0,0,0-.01.01-.02-7.52,10.65-12.84,22.68-15.68,35.4-.06.25-4.21,18.4-2.16,27.81Z"/>
		<path class="cls-35" d="M261.11,758.31c4.26,4.19,7.91,8.95,10.85,14.16.64.48,1.24.96,1.75,1.43,26.49,24.41,12.61,58.93,11.57,61.39,21.52-17.73,35.29-43.94,31.14-71.01-13.21-32.93-35.62-46.21-53.91-75.13-.92-1.46-1.85-2.93-2.75-4.47-.46-.79-.89-1.6-1.29-2.42-.76-1.47-1.34-3.02-1.75-4.62.01-.16-.11-.3-.26-.32-.07-.02-.15-.02-.22,0-.02.01-.04.03-.06.04-.03.01-.06.03-.09.05-4.52,2.16-31.32,44.59,5.01,80.9Z"/>
		<path class="cls-37" d="M273.69,773.9c-.51-.47-1.11-.95-1.75-1.43-.24-.18-.47-.36-.72-.54-6.24-4.38-17.42-8.71-28.18-6.84,42.03,21.01,30.75,93.37-27.49,90.63-5.19-.21-10.31-1.2-15.2-2.93-1.16-.44-2.3-.9-3.43-1.4-.66-.3-1.32-.61-1.97-.94.03.02.06.04.08.05,8.12,5.54,48.25,19.08,90.18-15.06l.07-.15c1.03-2.46,14.91-36.98-11.58-61.39Z"/>
		<path class="cls-6" d="M167.42,812.21s5.39-20.1,38.62-20.1c3.59,0,13.86-10.02,14.05-12.93.19-2.91-21.24,8.92-43.87-1.72-24.43-11.49-42.96,1.72-42.96,1.72,0,0,7.04,17.41,27.68,17.41-2.17,19.1,7.93,41.37,32.38,53.06.54.26,1.06.54,1.62.8-14.27-7.37-26.05-21.31-27.52-38.24Z"/>
		<path class="cls-34" d="M328.02,758.2c-5.08-12.22-15.37-25.41-23.44-29.57,6.58,12.88,10.38,25.82,11.83,35.46,0,.02.01.07.03.2-13.21-32.93-35.62-46.21-53.91-75.13-.92-1.46-1.85-2.93-2.75-4.47-.46-.79-.89-1.6-1.29-2.42-.76-1.47-1.34-3.02-1.74-4.62,0-.16-.11-.3-.27-.32-.07-.02-.15-.02-.22,0-.02.01-.04.03-.06.04-.03.01-.06.03-.09.05.02-.02.04-.06.05-.07-29.36,17.19-39.31,48.99-40.23,64.9,1.36-.09,2.72-.21,4.11-.21,21.91,0,40.98,12.04,51.2,29.9-6.24-4.38-17.41-8.71-28.18-6.84,42.03,21.01,30.75,93.36-27.49,90.63-5.18-.21-10.31-1.2-15.2-2.94-1.15-.44-2.3-.9-3.43-1.4-.66-.3-1.31-.61-1.97-.94.02.02.05.04.08.05-.57-.28-1.14-.56-1.7-.85.55.26,1.06.54,1.62.8-14.27-7.37-26.05-21.31-27.52-38.24,0,0,5.39-20.09,38.62-20.09,3.59,0,13.86-10.03,14.05-12.93-.04-.95-20.38-9.04-28.31-16.85-4.23-4.17-6.24-6.19-8.03-7.7-.97-.82-1.98-1.58-3.03-2.28-2.66-9.32-2.78-19.18-.33-28.56-12,5.46-21.34,14.11-28.13,21.73h-.05c-4.63-5.87-4.31-25.22-4.04-29.26-.06-.25-3.45,1.77-3.9,2.07-4.09,2.91-7.91,6.19-11.42,9.78-4,4.05-7.65,8.43-10.91,13.09,0,0,0,.01,0,.02,0,0,0-.01,0-.02-7.52,10.65-12.84,22.68-15.68,35.4-.06.26-.1.52-.16.77-.22,1.03-1.21,6.24-1.34,7.37-.01.08.01-.09,0,0-.9,5.39-1.48,10.84-1.72,16.3,0,.2-.01.4-.01.6,0,64.53,52.31,116.84,116.85,116.84,57.79,0,105.78-41.96,115.17-97.06.2-1.5.36-3,.53-4.51,2.32-20.04-.26-41.1-7.58-58.71ZM316.43,764.2s.01.09.02.13v-.02l-.02-.11Z"/>
	</g>
</svg>
